<svg xmlns="http://www.w3.org/2000/svg" xmlns:xlink="http://www.w3.org/1999/xlink" viewBox="0 0 177.58 33"><defs><style>.cls-1{fill:none;}.cls-2{fill:#ff0063;}.cls-3{opacity:0.3;}.cls-4{clip-path:url(#clip-path);}.cls-5{fill:#ff5ba3;}.cls-6{fill:#fff;}</style><clipPath id="clip-path"><rect class="cls-1" x="87.88" y="24.02" width="17.18" height="8.87"/></clipPath></defs><title>Recurso 1logo</title><g id="Capa_2" data-name="Capa 2"><g id="Capa_1-2" data-name="Capa 1"><rect class="cls-2" x="144.7" y="0.09" width="32.88" height="32.88" rx="0.65" ry="0.65"/><rect class="cls-2" y="0.03" width="32.88" height="32.88" rx="0.65" ry="0.65"/><path class="cls-2" d="M105.06,1a1,1,0,0,0-1-1h-31a1,1,0,0,0-1,1v31a1,1,0,0,0,1,1H96.19L105.06,24Z"/><g class="cls-3"><g class="cls-4"><polygon points="96.42 24.34 87.88 32.88 96.19 32.88 105.06 24.02 96.42 24.34"/></g></g><path class="cls-5" d="M105.06,24h-7.9a1,1,0,0,0-1,1v7.9Z"/><rect class="cls-2" x="36.09" y="0.12" width="32.88" height="32.88" rx="0.65" ry="0.65"/><rect class="cls-2" x="108.28" y="0.12" width="32.88" height="32.88" rx="0.65" ry="0.65"/><path class="cls-6" d="M22.73,11.59v9.91a.36.36,0,0,1-.36.36H19.81a.35.35,0,0,1-.36-.35c0-1.16,0-4.8,0-4.94l-3.18,4.36c-.21-.28-3.1-4.33-3.25-4.59,0,.19,0,4,0,5.19a.35.35,0,0,1-.36.35H10.17a.35.35,0,0,1-.35-.35V11.59a.36.36,0,0,1,.35-.36h2.29a.36.36,0,0,1,.29.15l3.51,4.83,3.55-4.83a.36.36,0,0,1,.29-.14h2.29a.35.35,0,0,1,.36.35"/><path class="cls-6" d="M89,11.12a7.82,7.82,0,0,1,1.47.18A4,4,0,0,1,93,13.06a3.58,3.58,0,0,1-.88,4.84l-.55.39c0,.08,1.54,2.4,2.06,3.21a.18.18,0,0,1-.15.27H90.2a.39.39,0,0,1-.33-.18l-1.74-2.71H86.75v2.5a.39.39,0,0,1-.39.39H83.92a.39.39,0,0,1-.39-.39V11.51a.39.39,0,0,1,.39-.39Zm-2.22,5.16H89a1.4,1.4,0,0,0,.59-.14,1.16,1.16,0,0,0,.64-1.09,1,1,0,0,0-.61-1,1.37,1.37,0,0,0-.73-.17H86.78c0,.82,0,2.42,0,2.42"/><path class="cls-6" d="M57.72,11.14a.38.38,0,0,1,.38.38c0,1.06,0,4.07,0,5.55A4.88,4.88,0,0,1,56.7,20.5a5.17,5.17,0,0,1-2.85,1.37,7.93,7.93,0,0,1-2,.08,5.31,5.31,0,0,1-3.65-1.58A4.55,4.55,0,0,1,47,17.87a11,11,0,0,1-.1-1.53c0-1.24,0-3.84,0-4.82a.38.38,0,0,1,.38-.38h2.43a.38.38,0,0,1,.38.38c0,1,0,3.54,0,4.77a4.34,4.34,0,0,0,.26,1.64,2,2,0,0,0,.91,1,2.72,2.72,0,0,0,1.81.22,1.9,1.9,0,0,0,1.6-1.48,3.62,3.62,0,0,0,.12-.89c0-1.36,0-4.25,0-5.28a.38.38,0,0,1,.38-.38Z"/><path class="cls-6" d="M126.21,11.24l4.74,10.3a.24.24,0,0,1-.22.34h-2.86a.47.47,0,0,1-.44-.29L127,20.52h-4.59l-.46,1.07a.47.47,0,0,1-.43.28h-2.86a.24.24,0,0,1-.22-.34l4.79-10.3Zm-.41,6.68L124.68,15l-1.12,2.94Z"/><path class="cls-6" d="M160.29,11.63v7.5h4.5a.39.39,0,0,1,.39.39v2a.39.39,0,0,1-.39.39h-7.32a.39.39,0,0,1-.39-.39V11.63a.39.39,0,0,1,.39-.39h2.42a.39.39,0,0,1,.39.39"/></g></g></svg>